<?xml version="1.0" encoding="UTF-8" standalone="no"?>
<svg width="116px" height="31px" viewBox="0 0 116 31" version="1.1" xmlns="http://www.w3.org/2000/svg" xmlns:xlink="http://www.w3.org/1999/xlink" xmlns:sketch="http://www.bohemiancoding.com/sketch/ns">
    <!-- Generator: Sketch 3.1 (8751) - http://www.bohemiancoding.com/sketch -->
    <title>Group</title>
    <desc>Created with Sketch.</desc>
    <defs></defs>
    <g id="Page-1" stroke="none" stroke-width="1" fill="none" fill-rule="evenodd" sketch:type="MSPage">
        <g id="Marketplace" sketch:type="MSArtboardGroup" transform="translate(-414.000000, -344.000000)" fill="#FFFFFF">
            <g id="Group-2" sketch:type="MSLayerGroup" transform="translate(100.000000, 148.000000)">
                <g id="Apple-Store-2" transform="translate(291.000000, 187.000000)" sketch:type="MSShapeGroup">
                    <g id="Group" transform="translate(24.000000, 10.000000)">
                        <path d="M17.9843254,13.7910068 C17.9541996,10.470063 20.7429796,8.85504202 20.8708602,8.77989657 C19.2907975,6.50977699 16.8432373,6.20010504 15.9831175,6.17525856 C13.9271915,5.96194247 11.9327466,7.38788785 10.8857245,7.38788785 C9.8177988,7.38788785 8.20515112,6.19586296 6.4664673,6.23101164 C4.22978706,6.26494829 2.13758727,7.54120879 0.99035106,9.52347285 C-1.37851342,13.5649644 0.387836867,19.5044845 2.65710206,22.7708872 C3.79204206,24.3719699 5.11818809,26.1578862 6.85441267,26.094255 C8.5531338,26.0269877 9.18700333,25.0276745 11.2367812,25.0276745 C13.2681148,25.0276745 13.863866,26.094255 15.6339052,26.0542582 C17.456818,26.0269877 18.6046691,24.4471154 19.6996464,22.8327004 C21.0116518,21.0007272 21.5379295,19.1923885 21.558833,19.1002747 C21.5170259,19.0857304 18.0205992,17.7700792 17.9843254,13.7910068" id="Fill-4"></path>
                        <path d="M14.6403716,4.02634131 C15.553365,2.90037169 16.1786272,1.36837427 16.0052507,-0.186651584 C14.6834083,-0.128474467 13.0295683,0.71509373 12.077227,1.81682288 C11.2349368,2.78704751 10.4824088,4.37782805 10.6773037,5.87346477 C12.1620709,5.98254686 13.6868007,5.13473659 14.6403716,4.02634131" id="Fill-5"></path>
                        <path d="M42.5847339,25.8645766 L40.2115658,25.8645766 L38.9112418,21.8376293 L34.3923853,21.8376293 L33.1535424,25.8645766 L30.8424701,25.8645766 L35.320749,12.1547754 L38.0861662,12.1547754 L42.5847339,25.8645766 L42.5847339,25.8645766 Z M38.5189928,20.1480688 L37.3434753,16.5689641 C37.2186688,16.2023271 36.9850408,15.3411846 36.6419766,13.9855365 L36.6001695,13.9855365 C36.462452,14.5685197 36.241735,15.4296622 35.9398631,16.5689641 L34.7840196,20.1480688 L38.5189928,20.1480688 L38.5189928,20.1480688 Z" id="Fill-6"></path>
                        <path d="M54.079844,20.8001374 C54.079844,22.4812136 53.6168918,23.8101972 52.6897577,24.7864819 C51.8597636,25.6542906 50.8281118,26.0881949 49.5978762,26.0881949 C48.2698857,26.0881949 47.3144703,25.6215659 46.7340893,24.685884 L46.7340893,29.8727376 L44.5060164,29.8727376 L44.5060164,19.2287492 C44.5060164,18.1724709 44.4777352,17.0901341 44.423017,15.9793148 L46.3830326,15.9793148 L46.5078391,17.5464609 L46.5496462,17.5464609 C47.2923372,16.3653442 48.4205143,15.7750889 49.9335627,15.7750889 C51.1170727,15.7750889 52.1044582,16.2356577 52.8944895,17.1574014 C53.6839061,18.0815692 54.079844,19.2954105 54.079844,20.8001374 L54.079844,20.8001374 Z M51.809964,20.8807369 C51.809964,19.9189964 51.5898619,19.1251212 51.1490428,18.5003232 C50.6670315,17.8506787 50.0202509,17.5246445 49.209316,17.5246445 C48.6596755,17.5246445 48.1598346,17.7052359 47.7134823,18.0639948 C47.2665151,18.4239657 46.9732506,18.8948368 46.8367627,19.478426 C46.7679039,19.7499192 46.7328597,19.9711134 46.7328597,20.1462508 L46.7328597,21.7964205 C46.7328597,22.5133323 46.9572655,23.1199499 47.4042327,23.6174855 C47.8518146,24.1113849 48.4328105,24.3598497 49.1472202,24.3598497 C49.9870512,24.3598497 50.6405946,24.0398756 51.1072357,23.4041694 C51.5757212,22.7660391 51.809964,21.924895 51.809964,20.8807369 L51.809964,20.8807369 Z" id="Fill-7"></path>
                        <path d="M65.6155316,20.8001374 C65.6155316,22.4812136 65.1525793,23.8101972 64.2254452,24.7864819 C63.3948364,25.6542906 62.3637993,26.0881949 61.1329489,26.0881949 C59.8049585,26.0881949 58.8495431,25.6215659 58.2685473,24.685884 L58.2685473,29.8727376 L56.0404744,29.8727376 L56.0404744,19.2287492 C56.0404744,18.1724709 56.0128079,17.0901341 55.9580898,15.9793148 L57.9181053,15.9793148 L58.042297,17.5464609 L58.0841041,17.5464609 C58.8261803,16.3653442 59.9537426,15.7750889 61.4686354,15.7750889 C62.6509158,15.7750889 63.6389161,16.2356577 64.4307919,17.1574014 C65.2189788,18.0815692 65.6155316,19.2954105 65.6155316,20.8001374 L65.6155316,20.8001374 Z M63.3444219,20.8807369 C63.3444219,19.9189964 63.1243198,19.1251212 62.6835008,18.5003232 C62.2014894,17.8506787 61.5565533,17.5246445 60.7450036,17.5246445 C60.1947482,17.5246445 59.6955222,17.7052359 59.2479402,18.0639948 C58.8003583,18.4239657 58.5089381,18.8948368 58.3718354,19.478426 C58.3035915,19.7499192 58.2667028,19.9711134 58.2667028,20.1462508 L58.2667028,21.7964205 C58.2667028,22.5133323 58.4911086,23.1199499 58.937461,23.6174855 C59.3844281,24.1101729 59.965424,24.3598497 60.6829077,24.3598497 C61.5227387,24.3598497 62.1762822,24.0398756 62.6423085,23.4041694 C63.1101792,22.7660391 63.3444219,21.924895 63.3444219,20.8807369 L63.3444219,20.8807369 Z" id="Fill-8"></path>
                        <path d="M78.5130241,22.0194328 C78.5130241,23.1866112 78.0998716,24.1356254 77.2766404,24.8676875 C76.3716395,25.6676228 75.1082041,26.0681965 73.4881787,26.0681965 C71.9911154,26.0681965 70.7916203,25.783371 69.8860046,25.2137201 L70.4018305,23.382959 C71.3787643,23.9532159 72.4522232,24.2380414 73.6209778,24.2380414 C74.4608088,24.2380414 75.1143523,24.0507838 75.5803785,23.6786926 C76.0482493,23.3053895 76.2837216,22.8072479 76.2837216,22.1842679 C76.2837216,21.6273432 76.0888267,21.1607143 75.705185,20.780139 C75.3190841,20.4019877 74.6815257,20.0474709 73.7863618,19.7238607 C71.3510978,18.8281755 70.1325436,17.5185844 70.1325436,15.7962993 C70.1325436,14.6715417 70.5629109,13.750404 71.4211862,13.0304622 C72.2806911,12.3111264 73.4199348,11.9517615 74.8376876,11.9517615 C76.1029674,11.9517615 77.1573672,12.1693197 77.994739,12.602618 L77.4352615,14.3933824 C76.6470746,13.9728103 75.7580587,13.7625242 74.7626807,13.7625242 C73.976953,13.7625242 73.3596834,13.9534179 72.9188643,14.3327812 C72.5481336,14.6715417 72.3593868,15.0848416 72.3593868,15.574499 C72.3593868,16.1156674 72.5733409,16.564722 73.0006341,16.9168148 C73.37075,17.241637 74.045197,17.5949418 75.0221307,17.9743051 C76.2197814,18.4500242 77.099575,19.0045249 77.6627414,19.6414431 C78.2302114,20.2783613 78.5130241,21.0722366 78.5130241,22.0194328" id="Fill-9"></path>
                        <path d="M85.8993563,17.6270604 L83.4425739,17.6270604 L83.4425739,22.4272786 C83.4425739,23.647786 83.8760153,24.2568277 84.7435128,24.2568277 C85.1412951,24.2568277 85.4720631,24.2241031 85.7333575,24.1544118 L85.7942237,25.8227618 C85.3558639,25.9845669 84.7779421,26.0657725 84.0623028,26.0657725 C83.1812795,26.0657725 82.4945363,25.8003394 81.9977695,25.2712912 C81.5028471,24.7422431 81.2544637,23.854436 81.2544637,22.606052 L81.2544637,17.6228184 L79.7918298,17.6228184 L79.7918298,15.9750727 L81.2544637,15.9750727 L81.2544637,14.164916 L83.4425739,13.5134535 L83.4425739,15.9750727 L85.8993563,15.9750727 L85.8993563,17.6270604" id="Fill-10"></path>
                        <path d="M96.9597954,20.8407401 C96.9597954,22.3600113 96.5189764,23.6071833 95.6379531,24.582862 C94.7175819,25.5870233 93.4922648,26.0881949 91.9656905,26.0881949 C90.49199,26.0881949 89.3201614,25.6070217 88.4465158,24.6452812 C87.5728702,23.6823287 87.13574,22.4690934 87.13574,21.0055753 C87.13574,19.4729719 87.5876257,18.2185278 88.4870933,17.2428491 C89.3884053,16.2665643 90.6032707,15.7781189 92.1298449,15.7781189 C93.601701,15.7781189 94.7833666,16.2605042 95.6791454,17.2228507 C96.5343466,18.1561086 96.9597954,19.3614657 96.9597954,20.8407401 L96.9597954,20.8407401 Z M94.6487231,20.8910391 C94.6487231,19.9856577 94.4507542,19.2087508 94.0529718,18.5585003 C93.5851011,17.7737153 92.9161874,17.3816257 92.0505344,17.3816257 C91.1584445,17.3816257 90.4723161,17.7737153 90.0069046,18.5585003 C89.606663,19.2087508 89.4086941,19.999596 89.4086941,20.9322479 C89.4086941,21.8382353 89.606663,22.6175663 90.0069046,23.2653927 C90.488916,24.0507838 91.1602889,24.4434793 92.0320901,24.4434793 C92.8829877,24.4434793 93.5506717,24.0416936 94.0345275,23.2460003 C94.4439913,22.5812056 94.6487231,21.7982385 94.6487231,20.8910391 L94.6487231,20.8910391 Z" id="Fill-11"></path>
                        <path d="M104.205951,17.9106739 C103.985234,17.8706771 103.749147,17.8506787 103.503223,17.8506787 C102.719339,17.8506787 102.113136,18.1403523 101.686458,18.7257595 C101.315727,19.2408694 101.130054,19.8917259 101.130054,20.677723 L101.130054,25.8645766 L98.9019815,25.8645766 L98.9019815,19.0917906 C98.9019815,17.9543067 98.8804631,16.9149968 98.8380412,15.9799208 L100.778383,15.9799208 L100.860153,17.8712831 L100.922248,17.8712831 C101.157721,17.2216387 101.528452,16.6974386 102.03567,16.3053491 C102.532437,15.9508323 103.068552,15.7750889 103.646473,15.7750889 C103.852435,15.7750889 104.038108,15.7902392 104.203492,15.8150856 L104.205951,17.9106739" id="Fill-12"></path>
                        <path d="M114.171413,20.4541047 C114.171413,20.8474063 114.144976,21.1795006 114.089643,21.4503878 L107.405424,21.4503878 C107.430017,22.4272786 107.754636,23.174491 108.37498,23.6896008 C108.938761,24.1495637 109.667312,24.3798481 110.561246,24.3798481 C111.551705,24.3798481 112.453632,24.2259211 113.266412,23.9132191 L113.615009,25.4373384 C112.666357,25.8445782 111.545557,26.0475921 110.253226,26.0475921 C108.697756,26.0475921 107.476742,25.5973255 106.588956,24.6967922 C105.703014,23.7950469 105.257891,22.5830236 105.257891,21.0655705 C105.257891,19.5765999 105.670429,18.335488 106.497349,17.345265 C107.362387,16.2877747 108.532372,15.7599386 110.004228,15.7599386 C111.449032,15.7599386 112.543395,16.2877747 113.2867,17.345265 C113.875689,18.1821671 114.171413,19.220871 114.171413,20.4541047 L114.171413,20.4541047 Z M112.046628,19.8844538 C112.061998,19.2329913 111.915673,18.6712185 111.613801,18.1967114 C111.2277,17.5840336 110.635023,17.2792098 109.838844,17.2792098 C109.110293,17.2792098 108.517001,17.5767615 108.065116,18.1742889 C107.694385,18.6494021 107.473668,19.220871 107.405424,19.8826357 L112.046628,19.8844538 L112.046628,19.8844538 Z" id="Fill-13"></path>
                        <path d="M37.444919,7.24789916 L36.277394,7.24789916 L35.638606,5.26866516 L33.4179109,5.26866516 L32.8086337,7.24789916 L31.6724641,7.24789916 L33.8734854,0.509049774 L35.2322163,0.509049774 L37.444919,7.24789916 L37.444919,7.24789916 Z M35.4467852,4.43842922 L34.8688634,2.67857143 C34.8079972,2.49858597 34.6961017,2.07922592 34.5239548,1.40958306 L34.5030512,1.40958306 C34.4311184,1.69925663 34.3302895,2.11922269 34.1778165,2.67857143 L33.6103465,4.43842922 L35.4467852,4.43842922 L35.4467852,4.43842922 Z" id="Fill-14"></path>
                        <path d="M42.9487017,2.38889787 L41.0821373,7.24789916 L40.0172857,7.24789916 L38.2109727,2.38889787 L39.3877198,2.38889787 L40.2300101,4.9583872 C40.3720313,5.38804945 40.4937638,5.79831933 40.5847557,6.1873788 L40.6148814,6.1873788 C40.6960364,5.8383161 40.8177688,5.42865223 40.9690122,4.9583872 L41.8008507,2.38889787 L42.9487017,2.38889787" id="Fill-15"></path>
                        <path d="M46.9222213,7.24789916 L46.8404515,6.68855042 L46.8109406,6.68855042 C46.4764838,7.13881707 45.9889391,7.35819328 45.3704399,7.35819328 C44.4881869,7.35819328 43.8586211,6.74854557 43.8586211,5.92800582 C43.8586211,4.72870879 44.9136357,4.10815288 46.7396226,4.10815288 L46.7396226,4.01906917 C46.7396226,3.37912088 46.394714,3.05914674 45.7153485,3.05914674 C45.2278038,3.05914674 44.8017402,3.17913704 44.4279355,3.41911765 L44.2047593,2.70947802 C44.6615635,2.42950065 45.2290335,2.28951196 45.8991768,2.28951196 C47.1865898,2.28951196 47.8370592,2.95915482 47.8370592,4.29904654 L47.8370592,6.08920491 C47.8370592,6.57946833 47.8579627,6.95883161 47.9077624,7.24911118 L46.9222213,7.24789916 L46.9222213,7.24789916 Z M46.7697483,4.82748869 C45.5524237,4.82748869 44.9437614,5.11837427 44.9437614,5.80801551 C44.9437614,6.3176713 45.2585444,6.56674208 45.6944449,6.56674208 C46.252078,6.56674208 46.7697483,6.14798804 46.7697483,5.57773109 L46.7697483,4.82748869 L46.7697483,4.82748869 Z" id="Fill-16"></path>
                        <path d="M50.2766269,1.58896251 C49.9114295,1.58896251 49.6273871,1.30837912 49.6273871,0.938712023 C49.6273871,0.569044926 49.9212664,0.298763736 50.2975304,0.298763736 C50.6725648,0.298763736 50.9762811,0.569044926 50.9664441,0.938712023 C50.9664441,1.32898352 50.6830165,1.58896251 50.2766269,1.58896251 L50.2766269,1.58896251 Z M49.7497343,2.38889787 L50.8447117,2.38889787 L50.8447117,7.24789916 L49.7497343,7.24789916 L49.7497343,2.38889787 Z" id="Fill-17"></path>
                        <path d="M52.7912014,0.15938106 L53.8861787,0.15938106 L53.8861787,7.24789916 L52.7912014,7.24789916 L52.7912014,0.15938106 Z" id="Fill-18"></path>
                        <path d="M58.5415231,7.24789916 L58.4597533,6.68855042 L58.4302424,6.68855042 C58.0951707,7.13881707 57.6082409,7.35819328 56.9897416,7.35819328 C56.1074887,7.35819328 55.4785377,6.74854557 55.4785377,5.92800582 C55.4785377,4.72870879 56.5329375,4.10815288 58.3583096,4.10815288 L58.3583096,4.01906917 C58.3583096,3.37912088 58.0134009,3.05914674 57.3346503,3.05914674 C56.8477204,3.05914674 56.421042,3.17913704 56.0466225,3.41911765 L55.8234463,2.708266 C56.2802504,2.42828862 56.8477204,2.28829994 57.5178638,2.28829994 C58.8046619,2.28829994 59.4557461,2.95794279 59.4557461,4.29783452 L59.4557461,6.08799289 C59.4557461,6.5782563 59.4772645,6.9582256 59.5252197,7.24789916 L58.5415231,7.24789916 L58.5415231,7.24789916 Z M58.3890501,4.82748869 C57.1717255,4.82748869 56.5630632,5.11837427 56.5630632,5.80801551 C56.5630632,6.3176713 56.8778461,6.56674208 57.3137467,6.56674208 C57.8719946,6.56674208 58.3890501,6.14798804 58.3890501,5.57773109 L58.3890501,4.82748869 L58.3890501,4.82748869 Z" id="Fill-19"></path>
                        <path d="M63.8928328,7.35819328 C63.1937934,7.35819328 62.6773526,7.06730769 62.342281,6.49765676 L62.3207626,6.49765676 L62.2586668,7.24789916 L61.3259994,7.24789916 C61.3555103,6.85883969 61.3653473,6.41766322 61.3653473,5.93830802 L61.3653473,0.15938106 L62.4627838,0.15938106 L62.4627838,3.10035553 L62.4830726,3.10035553 C62.8076925,2.56039916 63.334585,2.29072398 64.0551428,2.29072398 C65.2423416,2.29072398 66.0741801,3.29064318 66.0741801,4.74931319 C66.0741801,6.25828216 65.1501201,7.35819328 63.8928328,7.35819328 L63.8928328,7.35819328 Z M63.6702714,3.13792825 C63.0407056,3.13792825 62.4627838,3.67788462 62.4627838,4.42812702 L62.4627838,5.27775533 C62.4627838,5.94739819 62.981069,6.49765676 63.6505975,6.49765676 C64.4713694,6.49765676 64.9601437,5.8383161 64.9601437,4.78870394 C64.9595289,3.80878313 64.4510807,3.13792825 63.6702714,3.13792825 L63.6702714,3.13792825 Z" id="Fill-20"></path>
                        <path d="M67.6948203,0.15938106 L68.7891828,0.15938106 L68.7891828,7.24789916 L67.6948203,7.24789916 L67.6948203,0.15938106 Z" id="Fill-21"></path>
                        <path d="M74.7516141,5.0783775 L71.4629933,5.0783775 C71.4857413,5.99769716 72.1023961,6.51765514 73.0147747,6.51765514 C73.5023194,6.51765514 73.9486717,6.43705559 74.34338,6.28737072 L74.5142973,7.03761312 C74.0476562,7.23759696 73.5004749,7.33758888 72.8616869,7.33758888 C71.3191276,7.33758888 70.406749,6.37706044 70.406749,4.88869586 C70.406749,3.39911926 71.340646,2.27920976 72.7393397,2.27920976 C73.9953973,2.27920976 74.7885027,3.19913542 74.7885027,4.5887201 C74.7928064,4.77840175 74.7823546,4.94869101 74.7516141,5.0783775 L74.7516141,5.0783775 Z M73.7476287,4.30874273 C73.7476287,3.55850032 73.3615278,3.02884615 72.6612588,3.02884615 C72.0316929,3.02884615 71.5367705,3.56880252 71.4629933,4.30874273 L73.7476287,4.30874273 L73.7476287,4.30874273 Z" id="Fill-22"></path>
                        <path d="M81.3903368,7.35819328 C79.9498361,7.35819328 79.0159391,6.29767292 79.0159391,4.85900129 C79.0159391,3.3591225 79.96951,2.28951196 81.4733362,2.28951196 C82.8904742,2.28951196 83.8458896,3.29912734 83.8458896,4.77961377 C83.8458896,6.29767292 82.8621929,7.35819328 81.3903368,7.35819328 L81.3903368,7.35819328 Z M81.4321439,3.0779331 C80.6414978,3.0779331 80.1336644,3.80757111 80.1336644,4.82748869 C80.1336644,5.82861991 80.6513347,6.55765191 81.4216922,6.55765191 C82.1926644,6.55765191 82.7091051,5.77771493 82.7091051,4.8074903 C82.7091051,3.8178733 82.2031162,3.0779331 81.4321439,3.0779331 L81.4321439,3.0779331 Z" id="Fill-23"></path>
                        <path d="M89.7351584,7.24789916 L88.6414107,7.24789916 L88.6414107,4.45782159 C88.6414107,3.5991031 88.306339,3.16822883 87.6472623,3.16822883 C86.9980225,3.16822883 86.5510553,3.71788138 86.5510553,4.35782967 L86.5510553,7.24789916 L85.4566928,7.24789916 L85.4566928,3.77787654 C85.4566928,3.34821429 85.4443966,2.88825145 85.4161153,2.38829186 L86.3795232,2.38829186 L86.4305525,3.13792825 L86.461293,3.13792825 C86.7527131,2.61918229 87.3533829,2.28829994 88.0229114,2.28829994 C89.0557929,2.28829994 89.7351584,3.06823691 89.7351584,4.33722527 L89.7351584,7.24789916" id="Fill-24"></path>
                        <path d="M96.9013884,3.19913542 L95.69636,3.19913542 L95.69636,5.55833872 C95.69636,6.15889625 95.9084696,6.45887201 96.3339184,6.45887201 C96.5269689,6.45887201 96.6905085,6.43826761 96.8208483,6.40857304 L96.8515888,7.22850679 C96.6382496,7.30910633 96.3535924,7.3491031 96.0000764,7.3491031 C95.1368826,7.3491031 94.6222863,6.87944409 94.6222863,5.64863445 L94.6222863,3.19913542 L93.9041877,3.19913542 L93.9041877,2.38889787 L94.6222863,2.38889787 L94.6222863,1.49927279 L95.69636,1.17869263 L95.69636,2.38829186 L96.9013884,2.38829186 L96.9013884,3.19913542" id="Fill-25"></path>
                        <path d="M102.702125,7.24789916 L101.605918,7.24789916 L101.605918,4.47842599 C101.605918,3.60879929 101.271461,3.16944085 100.611769,3.16944085 C100.044299,3.16944085 99.5174067,3.54941015 99.5174067,4.31843891 L99.5174067,7.24789916 L98.4211997,7.24789916 L98.4211997,0.15938106 L99.5174067,0.15938106 L99.5174067,3.0779331 L99.5389251,3.0779331 C99.8832189,2.54888494 100.381215,2.28829994 101.020003,2.28829994 C102.063951,2.28829994 102.702125,3.08762928 102.702125,4.35782967 L102.702125,7.24789916" id="Fill-26"></path>
                        <path d="M108.299358,5.0783775 L105.013197,5.0783775 C105.033486,5.99769716 105.65014,6.51765514 106.563134,6.51765514 C107.052523,6.51765514 107.497646,6.43705559 107.891124,6.28737072 L108.062656,7.03761312 C107.597245,7.23759696 107.048219,7.33758888 106.409431,7.33758888 C104.866872,7.33758888 103.954493,6.37706044 103.954493,4.88869586 C103.954493,3.39911926 104.88839,2.27920976 106.287084,2.27920976 C107.544371,2.27920976 108.336247,3.19913542 108.336247,4.5887201 C108.340551,4.77840175 108.330099,4.94869101 108.299358,5.0783775 L108.299358,5.0783775 Z M107.295373,4.30874273 C107.295373,3.55850032 106.910502,3.02884615 106.210233,3.02884615 C105.580667,3.02884615 105.084515,3.56880252 105.013197,4.30874273 L107.295373,4.30874273 L107.295373,4.30874273 Z" id="Fill-27"></path>
                    </g>
                </g>
            </g>
        </g>
    </g>
</svg>