<?xml version="1.0" encoding="UTF-8" standalone="no"?>
<svg width="115px" height="31px" viewBox="0 0 115 31" version="1.1" xmlns="http://www.w3.org/2000/svg" xmlns:xlink="http://www.w3.org/1999/xlink" xmlns:sketch="http://www.bohemiancoding.com/sketch/ns">
    <!-- Generator: Sketch 3.2.1 (9971) - http://www.bohemiancoding.com/sketch -->
    <title>Group</title>
    <desc>Created with Sketch.</desc>
    <defs></defs>
    <g id="Page-1" stroke="none" stroke-width="1" fill="none" fill-rule="evenodd" sketch:type="MSPage">
        <g id="Marketplace" sketch:type="MSArtboardGroup" transform="translate(-406.000000, -612.000000)" fill="#16AACE">
            <g id="Group-2" sketch:type="MSLayerGroup" transform="translate(100.000000, 148.000000)">
                <g id="Apple-Store-3" transform="translate(282.500000, 455.000000)" sketch:type="MSShapeGroup">
                    <g id="Group" transform="translate(23.000000, 9.000000)">
                        <path d="M18.9843254,14.7910068 C18.9541996,11.470063 21.7429796,9.85504202 21.8708602,9.77989657 C20.2907975,7.50977699 17.8432373,7.20010504 16.9831175,7.17525856 C14.9271915,6.96194247 12.9327466,8.38788785 11.8857245,8.38788785 C10.8177988,8.38788785 9.20515112,7.19586296 7.4664673,7.23101164 C5.22978706,7.26494829 3.13758727,8.54120879 1.99035106,10.5234729 C-0.378513415,14.5649644 1.38783687,20.5044845 3.65710206,23.7708872 C4.79204206,25.3719699 6.11818809,27.1578862 7.85441267,27.094255 C9.5531338,27.0269877 10.1870033,26.0276745 12.2367812,26.0276745 C14.2681148,26.0276745 14.863866,27.094255 16.6339052,27.0542582 C18.456818,27.0269877 19.6046691,25.4471154 20.6996464,23.8327004 C22.0116518,22.0007272 22.5379295,20.1923885 22.558833,20.1002747 C22.5170259,20.0857304 19.0205992,18.7700792 18.9843254,14.7910068" id="Fill-4"></path>
                        <path d="M15.6403716,5.02634131 C16.553365,3.90037169 17.1786272,2.36837427 17.0052507,0.813348416 C15.6834083,0.871525533 14.0295683,1.71509373 13.077227,2.81682288 C12.2349368,3.78704751 11.4824088,5.37782805 11.6773037,6.87346477 C13.1620709,6.98254686 14.6868007,6.13473659 15.6403716,5.02634131" id="Fill-5"></path>
                        <path d="M43.5847339,26.8645766 L41.2115658,26.8645766 L39.9112418,22.8376293 L35.3923853,22.8376293 L34.1535424,26.8645766 L31.8424701,26.8645766 L36.320749,13.1547754 L39.0861662,13.1547754 L43.5847339,26.8645766 L43.5847339,26.8645766 Z M39.5189928,21.1480688 L38.3434753,17.5689641 C38.2186688,17.2023271 37.9850408,16.3411846 37.6419766,14.9855365 L37.6001695,14.9855365 C37.462452,15.5685197 37.241735,16.4296622 36.9398631,17.5689641 L35.7840196,21.1480688 L39.5189928,21.1480688 L39.5189928,21.1480688 Z" id="Fill-6"></path>
                        <path d="M55.079844,21.8001374 C55.079844,23.4812136 54.6168918,24.8101972 53.6897577,25.7864819 C52.8597636,26.6542906 51.8281118,27.0881949 50.5978762,27.0881949 C49.2698857,27.0881949 48.3144703,26.6215659 47.7340893,25.685884 L47.7340893,30.8727376 L45.5060164,30.8727376 L45.5060164,20.2287492 C45.5060164,19.1724709 45.4777352,18.0901341 45.423017,16.9793148 L47.3830326,16.9793148 L47.5078391,18.5464609 L47.5496462,18.5464609 C48.2923372,17.3653442 49.4205143,16.7750889 50.9335627,16.7750889 C52.1170727,16.7750889 53.1044582,17.2356577 53.8944895,18.1574014 C54.6839061,19.0815692 55.079844,20.2954105 55.079844,21.8001374 L55.079844,21.8001374 Z M52.809964,21.8807369 C52.809964,20.9189964 52.5898619,20.1251212 52.1490428,19.5003232 C51.6670315,18.8506787 51.0202509,18.5246445 50.209316,18.5246445 C49.6596755,18.5246445 49.1598346,18.7052359 48.7134823,19.0639948 C48.2665151,19.4239657 47.9732506,19.8948368 47.8367627,20.478426 C47.7679039,20.7499192 47.7328597,20.9711134 47.7328597,21.1462508 L47.7328597,22.7964205 C47.7328597,23.5133323 47.9572655,24.1199499 48.4042327,24.6174855 C48.8518146,25.1113849 49.4328105,25.3598497 50.1472202,25.3598497 C50.9870512,25.3598497 51.6405946,25.0398756 52.1072357,24.4041694 C52.5757212,23.7660391 52.809964,22.924895 52.809964,21.8807369 L52.809964,21.8807369 Z" id="Fill-7"></path>
                        <path d="M66.6155316,21.8001374 C66.6155316,23.4812136 66.1525793,24.8101972 65.2254452,25.7864819 C64.3948364,26.6542906 63.3637993,27.0881949 62.1329489,27.0881949 C60.8049585,27.0881949 59.8495431,26.6215659 59.2685473,25.685884 L59.2685473,30.8727376 L57.0404744,30.8727376 L57.0404744,20.2287492 C57.0404744,19.1724709 57.0128079,18.0901341 56.9580898,16.9793148 L58.9181053,16.9793148 L59.042297,18.5464609 L59.0841041,18.5464609 C59.8261803,17.3653442 60.9537426,16.7750889 62.4686354,16.7750889 C63.6509158,16.7750889 64.6389161,17.2356577 65.4307919,18.1574014 C66.2189788,19.0815692 66.6155316,20.2954105 66.6155316,21.8001374 L66.6155316,21.8001374 Z M64.3444219,21.8807369 C64.3444219,20.9189964 64.1243198,20.1251212 63.6835008,19.5003232 C63.2014894,18.8506787 62.5565533,18.5246445 61.7450036,18.5246445 C61.1947482,18.5246445 60.6955222,18.7052359 60.2479402,19.0639948 C59.8003583,19.4239657 59.5089381,19.8948368 59.3718354,20.478426 C59.3035915,20.7499192 59.2667028,20.9711134 59.2667028,21.1462508 L59.2667028,22.7964205 C59.2667028,23.5133323 59.4911086,24.1199499 59.937461,24.6174855 C60.3844281,25.1101729 60.965424,25.3598497 61.6829077,25.3598497 C62.5227387,25.3598497 63.1762822,25.0398756 63.6423085,24.4041694 C64.1101792,23.7660391 64.3444219,22.924895 64.3444219,21.8807369 L64.3444219,21.8807369 Z" id="Fill-8"></path>
                        <path d="M79.5130241,23.0194328 C79.5130241,24.1866112 79.0998716,25.1356254 78.2766404,25.8676875 C77.3716395,26.6676228 76.1082041,27.0681965 74.4881787,27.0681965 C72.9911154,27.0681965 71.7916203,26.783371 70.8860046,26.2137201 L71.4018305,24.382959 C72.3787643,24.9532159 73.4522232,25.2380414 74.6209778,25.2380414 C75.4608088,25.2380414 76.1143523,25.0507838 76.5803785,24.6786926 C77.0482493,24.3053895 77.2837216,23.8072479 77.2837216,23.1842679 C77.2837216,22.6273432 77.0888267,22.1607143 76.705185,21.780139 C76.3190841,21.4019877 75.6815257,21.0474709 74.7863618,20.7238607 C72.3510978,19.8281755 71.1325436,18.5185844 71.1325436,16.7962993 C71.1325436,15.6715417 71.5629109,14.750404 72.4211862,14.0304622 C73.2806911,13.3111264 74.4199348,12.9517615 75.8376876,12.9517615 C77.1029674,12.9517615 78.1573672,13.1693197 78.994739,13.602618 L78.4352615,15.3933824 C77.6470746,14.9728103 76.7580587,14.7625242 75.7626807,14.7625242 C74.976953,14.7625242 74.3596834,14.9534179 73.9188643,15.3327812 C73.5481336,15.6715417 73.3593868,16.0848416 73.3593868,16.574499 C73.3593868,17.1156674 73.5733409,17.564722 74.0006341,17.9168148 C74.37075,18.241637 75.045197,18.5949418 76.0221307,18.9743051 C77.2197814,19.4500242 78.099575,20.0045249 78.6627414,20.6414431 C79.2302114,21.2783613 79.5130241,22.0722366 79.5130241,23.0194328" id="Fill-9"></path>
                        <path d="M86.8993563,18.6270604 L84.4425739,18.6270604 L84.4425739,23.4272786 C84.4425739,24.647786 84.8760153,25.2568277 85.7435128,25.2568277 C86.1412951,25.2568277 86.4720631,25.2241031 86.7333575,25.1544118 L86.7942237,26.8227618 C86.3558639,26.9845669 85.7779421,27.0657725 85.0623028,27.0657725 C84.1812795,27.0657725 83.4945363,26.8003394 82.9977695,26.2712912 C82.5028471,25.7422431 82.2544637,24.854436 82.2544637,23.606052 L82.2544637,18.6228184 L80.7918298,18.6228184 L80.7918298,16.9750727 L82.2544637,16.9750727 L82.2544637,15.164916 L84.4425739,14.5134535 L84.4425739,16.9750727 L86.8993563,16.9750727 L86.8993563,18.6270604" id="Fill-10"></path>
                        <path d="M97.9597954,21.8407401 C97.9597954,23.3600113 97.5189764,24.6071833 96.6379531,25.582862 C95.7175819,26.5870233 94.4922648,27.0881949 92.9656905,27.0881949 C91.49199,27.0881949 90.3201614,26.6070217 89.4465158,25.6452812 C88.5728702,24.6823287 88.13574,23.4690934 88.13574,22.0055753 C88.13574,20.4729719 88.5876257,19.2185278 89.4870933,18.2428491 C90.3884053,17.2665643 91.6032707,16.7781189 93.1298449,16.7781189 C94.601701,16.7781189 95.7833666,17.2605042 96.6791454,18.2228507 C97.5343466,19.1561086 97.9597954,20.3614657 97.9597954,21.8407401 L97.9597954,21.8407401 Z M95.6487231,21.8910391 C95.6487231,20.9856577 95.4507542,20.2087508 95.0529718,19.5585003 C94.5851011,18.7737153 93.9161874,18.3816257 93.0505344,18.3816257 C92.1584445,18.3816257 91.4723161,18.7737153 91.0069046,19.5585003 C90.606663,20.2087508 90.4086941,20.999596 90.4086941,21.9322479 C90.4086941,22.8382353 90.606663,23.6175663 91.0069046,24.2653927 C91.488916,25.0507838 92.1602889,25.4434793 93.0320901,25.4434793 C93.8829877,25.4434793 94.5506717,25.0416936 95.0345275,24.2460003 C95.4439913,23.5812056 95.6487231,22.7982385 95.6487231,21.8910391 L95.6487231,21.8910391 Z" id="Fill-11"></path>
                        <path d="M105.205951,18.9106739 C104.985234,18.8706771 104.749147,18.8506787 104.503223,18.8506787 C103.719339,18.8506787 103.113136,19.1403523 102.686458,19.7257595 C102.315727,20.2408694 102.130054,20.8917259 102.130054,21.677723 L102.130054,26.8645766 L99.9019815,26.8645766 L99.9019815,20.0917906 C99.9019815,18.9543067 99.8804631,17.9149968 99.8380412,16.9799208 L101.778383,16.9799208 L101.860153,18.8712831 L101.922248,18.8712831 C102.157721,18.2216387 102.528452,17.6974386 103.03567,17.3053491 C103.532437,16.9508323 104.068552,16.7750889 104.646473,16.7750889 C104.852435,16.7750889 105.038108,16.7902392 105.203492,16.8150856 L105.205951,18.9106739" id="Fill-12"></path>
                        <path d="M115.171413,21.4541047 C115.171413,21.8474063 115.144976,22.1795006 115.089643,22.4503878 L108.405424,22.4503878 C108.430017,23.4272786 108.754636,24.174491 109.37498,24.6896008 C109.938761,25.1495637 110.667312,25.3798481 111.561246,25.3798481 C112.551705,25.3798481 113.453632,25.2259211 114.266412,24.9132191 L114.615009,26.4373384 C113.666357,26.8445782 112.545557,27.0475921 111.253226,27.0475921 C109.697756,27.0475921 108.476742,26.5973255 107.588956,25.6967922 C106.703014,24.7950469 106.257891,23.5830236 106.257891,22.0655705 C106.257891,20.5765999 106.670429,19.335488 107.497349,18.345265 C108.362387,17.2877747 109.532372,16.7599386 111.004228,16.7599386 C112.449032,16.7599386 113.543395,17.2877747 114.2867,18.345265 C114.875689,19.1821671 115.171413,20.220871 115.171413,21.4541047 L115.171413,21.4541047 Z M113.046628,20.8844538 C113.061998,20.2329913 112.915673,19.6712185 112.613801,19.1967114 C112.2277,18.5840336 111.635023,18.2792098 110.838844,18.2792098 C110.110293,18.2792098 109.517001,18.5767615 109.065116,19.1742889 C108.694385,19.6494021 108.473668,20.220871 108.405424,20.8826357 L113.046628,20.8844538 L113.046628,20.8844538 Z" id="Fill-13"></path>
                        <path d="M38.444919,8.24789916 L37.277394,8.24789916 L36.638606,6.26866516 L34.4179109,6.26866516 L33.8086337,8.24789916 L32.6724641,8.24789916 L34.8734854,1.50904977 L36.2322163,1.50904977 L38.444919,8.24789916 L38.444919,8.24789916 Z M36.4467852,5.43842922 L35.8688634,3.67857143 C35.8079972,3.49858597 35.6961017,3.07922592 35.5239548,2.40958306 L35.5030512,2.40958306 C35.4311184,2.69925663 35.3302895,3.11922269 35.1778165,3.67857143 L34.6103465,5.43842922 L36.4467852,5.43842922 L36.4467852,5.43842922 Z" id="Fill-14"></path>
                        <path d="M43.9487017,3.38889787 L42.0821373,8.24789916 L41.0172857,8.24789916 L39.2109727,3.38889787 L40.3877198,3.38889787 L41.2300101,5.9583872 C41.3720313,6.38804945 41.4937638,6.79831933 41.5847557,7.1873788 L41.6148814,7.1873788 C41.6960364,6.8383161 41.8177688,6.42865223 41.9690122,5.9583872 L42.8008507,3.38889787 L43.9487017,3.38889787" id="Fill-15"></path>
                        <path d="M47.9222213,8.24789916 L47.8404515,7.68855042 L47.8109406,7.68855042 C47.4764838,8.13881707 46.9889391,8.35819328 46.3704399,8.35819328 C45.4881869,8.35819328 44.8586211,7.74854557 44.8586211,6.92800582 C44.8586211,5.72870879 45.9136357,5.10815288 47.7396226,5.10815288 L47.7396226,5.01906917 C47.7396226,4.37912088 47.394714,4.05914674 46.7153485,4.05914674 C46.2278038,4.05914674 45.8017402,4.17913704 45.4279355,4.41911765 L45.2047593,3.70947802 C45.6615635,3.42950065 46.2290335,3.28951196 46.8991768,3.28951196 C48.1865898,3.28951196 48.8370592,3.95915482 48.8370592,5.29904654 L48.8370592,7.08920491 C48.8370592,7.57946833 48.8579627,7.95883161 48.9077624,8.24911118 L47.9222213,8.24789916 L47.9222213,8.24789916 Z M47.7697483,5.82748869 C46.5524237,5.82748869 45.9437614,6.11837427 45.9437614,6.80801551 C45.9437614,7.3176713 46.2585444,7.56674208 46.6944449,7.56674208 C47.252078,7.56674208 47.7697483,7.14798804 47.7697483,6.57773109 L47.7697483,5.82748869 L47.7697483,5.82748869 Z" id="Fill-16"></path>
                        <path d="M51.2766269,2.58896251 C50.9114295,2.58896251 50.6273871,2.30837912 50.6273871,1.93871202 C50.6273871,1.56904493 50.9212664,1.29876374 51.2975304,1.29876374 C51.6725648,1.29876374 51.9762811,1.56904493 51.9664441,1.93871202 C51.9664441,2.32898352 51.6830165,2.58896251 51.2766269,2.58896251 L51.2766269,2.58896251 Z M50.7497343,3.38889787 L51.8447117,3.38889787 L51.8447117,8.24789916 L50.7497343,8.24789916 L50.7497343,3.38889787 Z" id="Fill-17"></path>
                        <path d="M53.7912014,1.15938106 L54.8861787,1.15938106 L54.8861787,8.24789916 L53.7912014,8.24789916 L53.7912014,1.15938106 Z" id="Fill-18"></path>
                        <path d="M59.5415231,8.24789916 L59.4597533,7.68855042 L59.4302424,7.68855042 C59.0951707,8.13881707 58.6082409,8.35819328 57.9897416,8.35819328 C57.1074887,8.35819328 56.4785377,7.74854557 56.4785377,6.92800582 C56.4785377,5.72870879 57.5329375,5.10815288 59.3583096,5.10815288 L59.3583096,5.01906917 C59.3583096,4.37912088 59.0134009,4.05914674 58.3346503,4.05914674 C57.8477204,4.05914674 57.421042,4.17913704 57.0466225,4.41911765 L56.8234463,3.708266 C57.2802504,3.42828862 57.8477204,3.28829994 58.5178638,3.28829994 C59.8046619,3.28829994 60.4557461,3.95794279 60.4557461,5.29783452 L60.4557461,7.08799289 C60.4557461,7.5782563 60.4772645,7.9582256 60.5252197,8.24789916 L59.5415231,8.24789916 L59.5415231,8.24789916 Z M59.3890501,5.82748869 C58.1717255,5.82748869 57.5630632,6.11837427 57.5630632,6.80801551 C57.5630632,7.3176713 57.8778461,7.56674208 58.3137467,7.56674208 C58.8719946,7.56674208 59.3890501,7.14798804 59.3890501,6.57773109 L59.3890501,5.82748869 L59.3890501,5.82748869 Z" id="Fill-19"></path>
                        <path d="M64.8928328,8.35819328 C64.1937934,8.35819328 63.6773526,8.06730769 63.342281,7.49765676 L63.3207626,7.49765676 L63.2586668,8.24789916 L62.3259994,8.24789916 C62.3555103,7.85883969 62.3653473,7.41766322 62.3653473,6.93830802 L62.3653473,1.15938106 L63.4627838,1.15938106 L63.4627838,4.10035553 L63.4830726,4.10035553 C63.8076925,3.56039916 64.334585,3.29072398 65.0551428,3.29072398 C66.2423416,3.29072398 67.0741801,4.29064318 67.0741801,5.74931319 C67.0741801,7.25828216 66.1501201,8.35819328 64.8928328,8.35819328 L64.8928328,8.35819328 Z M64.6702714,4.13792825 C64.0407056,4.13792825 63.4627838,4.67788462 63.4627838,5.42812702 L63.4627838,6.27775533 C63.4627838,6.94739819 63.981069,7.49765676 64.6505975,7.49765676 C65.4713694,7.49765676 65.9601437,6.8383161 65.9601437,5.78870394 C65.9595289,4.80878313 65.4510807,4.13792825 64.6702714,4.13792825 L64.6702714,4.13792825 Z" id="Fill-20"></path>
                        <path d="M68.6948203,1.15938106 L69.7891828,1.15938106 L69.7891828,8.24789916 L68.6948203,8.24789916 L68.6948203,1.15938106 Z" id="Fill-21"></path>
                        <path d="M75.7516141,6.0783775 L72.4629933,6.0783775 C72.4857413,6.99769716 73.1023961,7.51765514 74.0147747,7.51765514 C74.5023194,7.51765514 74.9486717,7.43705559 75.34338,7.28737072 L75.5142973,8.03761312 C75.0476562,8.23759696 74.5004749,8.33758888 73.8616869,8.33758888 C72.3191276,8.33758888 71.406749,7.37706044 71.406749,5.88869586 C71.406749,4.39911926 72.340646,3.27920976 73.7393397,3.27920976 C74.9953973,3.27920976 75.7885027,4.19913542 75.7885027,5.5887201 C75.7928064,5.77840175 75.7823546,5.94869101 75.7516141,6.0783775 L75.7516141,6.0783775 Z M74.7476287,5.30874273 C74.7476287,4.55850032 74.3615278,4.02884615 73.6612588,4.02884615 C73.0316929,4.02884615 72.5367705,4.56880252 72.4629933,5.30874273 L74.7476287,5.30874273 L74.7476287,5.30874273 Z" id="Fill-22"></path>
                        <path d="M82.3903368,8.35819328 C80.9498361,8.35819328 80.0159391,7.29767292 80.0159391,5.85900129 C80.0159391,4.3591225 80.96951,3.28951196 82.4733362,3.28951196 C83.8904742,3.28951196 84.8458896,4.29912734 84.8458896,5.77961377 C84.8458896,7.29767292 83.8621929,8.35819328 82.3903368,8.35819328 L82.3903368,8.35819328 Z M82.4321439,4.0779331 C81.6414978,4.0779331 81.1336644,4.80757111 81.1336644,5.82748869 C81.1336644,6.82861991 81.6513347,7.55765191 82.4216922,7.55765191 C83.1926644,7.55765191 83.7091051,6.77771493 83.7091051,5.8074903 C83.7091051,4.8178733 83.2031162,4.0779331 82.4321439,4.0779331 L82.4321439,4.0779331 Z" id="Fill-23"></path>
                        <path d="M90.7351584,8.24789916 L89.6414107,8.24789916 L89.6414107,5.45782159 C89.6414107,4.5991031 89.306339,4.16822883 88.6472623,4.16822883 C87.9980225,4.16822883 87.5510553,4.71788138 87.5510553,5.35782967 L87.5510553,8.24789916 L86.4566928,8.24789916 L86.4566928,4.77787654 C86.4566928,4.34821429 86.4443966,3.88825145 86.4161153,3.38829186 L87.3795232,3.38829186 L87.4305525,4.13792825 L87.461293,4.13792825 C87.7527131,3.61918229 88.3533829,3.28829994 89.0229114,3.28829994 C90.0557929,3.28829994 90.7351584,4.06823691 90.7351584,5.33722527 L90.7351584,8.24789916" id="Fill-24"></path>
                        <path d="M97.9013884,4.19913542 L96.69636,4.19913542 L96.69636,6.55833872 C96.69636,7.15889625 96.9084696,7.45887201 97.3339184,7.45887201 C97.5269689,7.45887201 97.6905085,7.43826761 97.8208483,7.40857304 L97.8515888,8.22850679 C97.6382496,8.30910633 97.3535924,8.3491031 97.0000764,8.3491031 C96.1368826,8.3491031 95.6222863,7.87944409 95.6222863,6.64863445 L95.6222863,4.19913542 L94.9041877,4.19913542 L94.9041877,3.38889787 L95.6222863,3.38889787 L95.6222863,2.49927279 L96.69636,2.17869263 L96.69636,3.38829186 L97.9013884,3.38829186 L97.9013884,4.19913542" id="Fill-25"></path>
                        <path d="M103.702125,8.24789916 L102.605918,8.24789916 L102.605918,5.47842599 C102.605918,4.60879929 102.271461,4.16944085 101.611769,4.16944085 C101.044299,4.16944085 100.517407,4.54941015 100.517407,5.31843891 L100.517407,8.24789916 L99.4211997,8.24789916 L99.4211997,1.15938106 L100.517407,1.15938106 L100.517407,4.0779331 L100.538925,4.0779331 C100.883219,3.54888494 101.381215,3.28829994 102.020003,3.28829994 C103.063951,3.28829994 103.702125,4.08762928 103.702125,5.35782967 L103.702125,8.24789916" id="Fill-26"></path>
                        <path d="M109.299358,6.0783775 L106.013197,6.0783775 C106.033486,6.99769716 106.65014,7.51765514 107.563134,7.51765514 C108.052523,7.51765514 108.497646,7.43705559 108.891124,7.28737072 L109.062656,8.03761312 C108.597245,8.23759696 108.048219,8.33758888 107.409431,8.33758888 C105.866872,8.33758888 104.954493,7.37706044 104.954493,5.88869586 C104.954493,4.39911926 105.88839,3.27920976 107.287084,3.27920976 C108.544371,3.27920976 109.336247,4.19913542 109.336247,5.5887201 C109.340551,5.77840175 109.330099,5.94869101 109.299358,6.0783775 L109.299358,6.0783775 Z M108.295373,5.30874273 C108.295373,4.55850032 107.910502,4.02884615 107.210233,4.02884615 C106.580667,4.02884615 106.084515,4.56880252 106.013197,5.30874273 L108.295373,5.30874273 L108.295373,5.30874273 Z" id="Fill-27"></path>
                    </g>
                </g>
            </g>
        </g>
    </g>
</svg>