<?xml version="1.0" encoding="UTF-8" standalone="no"?>
<svg width="117px" height="31px" viewBox="0 0 117 31" version="1.1" xmlns="http://www.w3.org/2000/svg" xmlns:xlink="http://www.w3.org/1999/xlink" xmlns:sketch="http://www.bohemiancoding.com/sketch/ns">
    <!-- Generator: Sketch 3.1 (8751) - http://www.bohemiancoding.com/sketch -->
    <title>Group</title>
    <desc>Created with Sketch.</desc>
    <defs></defs>
    <g id="Page-1" stroke="none" stroke-width="1" fill="none" fill-rule="evenodd" sketch:type="MSPage">
        <g id="Marketplace" sketch:type="MSArtboardGroup" transform="translate(-235.000000, -345.000000)">
            <g id="Group-2" sketch:type="MSLayerGroup" transform="translate(100.000000, 148.000000)">
                <g id="Google-Play-2" transform="translate(113.000000, 187.000000)" sketch:type="MSShapeGroup">
                    <g id="Group" transform="translate(22.768889, 10.142857)">
                        <g id="Imported-Layers" transform="translate(0.000000, 1.666667)">
                            <path d="M17.4255395,8.33090909 C11.8997073,5.31798485 3.51046795,0.813171717 2.30867518,0.220063131 C1.70648802,-0.0771136364 1.2472738,-0.0618813131 0.903090924,0.0872929293 L13.4629187,12.1494621 L17.4255395,8.33090909" id="Fill-1" fill="#B1E9B6"></path>
                            <path d="M0.903090924,0.0872929293 C0.234010949,0.377292929 0,1.17435354 0,1.17435354 L0,23.1624318 C0.262939622,23.7807323 0.650401619,24.0443687 1.02131125,24.1386919 L13.4629187,12.1494621 L0.903090924,0.0872929293" id="Fill-2" fill="#4ED4D2"></path>
                            <path d="M22.2842659,11.0352323 C22.0280079,10.8560328 20.0495448,9.76164899 17.4255395,8.33090909 L13.4629187,12.1494621 L17.2772516,15.8125429 C19.8706578,14.4034798 21.8737217,13.3113662 22.2920865,13.0733611 C22.9948027,12.6735126 22.886529,11.4563914 22.2842659,11.0352323" id="Fill-3" fill="#FFBE84"></path>
                            <path d="M1.02131125,24.1386919 C1.58075079,24.2809091 2.10252991,24.0370455 2.10252991,24.0370455 C2.10252991,24.0371187 11.2727675,19.0748965 17.2772516,15.8125429 L13.4629187,12.1494621 L1.02131125,24.1386919" id="Fill-4" fill="#D14F90"></path>
                        </g>
                        <path d="M35.1083547,0.352941176 C36.0715238,0.352941176 36.7377107,0.779411765 37.171666,1.21691176 L36.4948949,1.96629902 C36.1449912,1.63296569 35.7645798,1.40379902 35.1195616,1.40379902 C33.8917855,1.40379902 33.0668345,2.34068627 33.0668345,3.87132353 C33.0668345,5.42279412 33.8077339,6.35968137 35.1930289,6.35968137 C35.5740628,6.35968137 35.9550968,6.25551471 36.1773666,6.05821078 L36.1773666,4.59007353 L34.8761232,4.59007353 L34.8761232,3.6004902 L37.2768862,3.6004902 L37.2768862,6.59926471 C36.8012163,7.03676471 35.986227,7.41115196 35.044849,7.41115196 C33.2044301,7.41115196 31.8079282,6.16176471 31.8079282,3.90257353 C31.8079282,1.67463235 33.2473898,0.352941176 35.1083547,0.352941176" id="Fill-4" fill="#FFFFFF"></path>
                        <path d="M40.7398124,2.04963235 C42.1468986,2.04963235 42.8871753,3.04901961 42.8871753,4.47487745 C42.8871753,4.70465686 42.8660068,4.91237745 42.8342539,5.03737745 L39.5338275,5.03737745 C39.6396702,5.96384804 40.2323897,6.48468137 41.067925,6.48468137 C41.511842,6.48468137 41.8928759,6.34926471 42.2732873,6.10968137 L42.6860741,6.85968137 C42.1886131,7.18198529 41.5647634,7.41115196 40.9091608,7.41115196 C39.4703218,7.41115196 38.3490111,6.42218137 38.3490111,4.73529412 C38.3490111,3.06985294 39.5232432,2.04963235 40.7398124,2.04963235 L40.7398124,2.04963235 Z M41.8287477,4.27757353 C41.8287477,3.46568627 41.4800891,2.97610294 40.7715652,2.97610294 C40.1576772,2.97610294 39.629086,3.42401961 39.5232432,4.27757353 L41.8287477,4.27757353 L41.8287477,4.27757353 Z" id="Fill-5" fill="#FFFFFF"></path>
                        <path d="M44.0744821,3.12132353 L43.3342053,3.12132353 L43.3342053,2.22671569 L44.1379878,2.17463235 L44.2867902,0.779411765 L45.3022582,0.779411765 L45.3022582,2.17463235 L46.6240475,2.17463235 L46.6240475,3.12132353 L45.3022582,3.12132353 L45.3022582,5.55821078 C45.3022582,6.16176471 45.5344897,6.45343137 46.0319506,6.45343137 C46.2118833,6.45343137 46.4229463,6.40134804 46.5711261,6.33884804 L46.7828117,7.22365196 C46.4976588,7.31740196 46.1377934,7.41115196 45.7250066,7.41115196 C44.5190217,7.41115196 44.0744821,6.66176471 44.0744821,5.55821078 L44.0744821,3.12132353" id="Fill-6" fill="#FFFFFF"></path>
                        <path d="M49.7482769,0.602328431 C49.7482769,0.196691176 50.0658052,-0.0845588235 50.4991379,-0.0845588235 C50.9330933,-0.0845588235 51.2506216,0.196691176 51.2506216,0.602328431 C51.2506216,0.998161765 50.9330933,1.27941176 50.4991379,1.27941176 C50.0658052,1.27941176 49.7482769,0.998161765 49.7482769,0.602328431 L49.7482769,0.602328431 Z M49.8858725,2.17463235 L51.1024417,2.17463235 L51.1024417,7.28615196 L49.8858725,7.28615196 L49.8858725,2.17463235 Z" id="Fill-7" fill="#FFFFFF"></path>
                        <path d="M52.8388857,3.12132353 L52.0979863,3.12132353 L52.0979863,2.22671569 L52.9023913,2.17463235 L53.0505712,0.779411765 L54.0660391,0.779411765 L54.0660391,2.17463235 L55.3884511,2.17463235 L55.3884511,3.12132353 L54.0660391,3.12132353 L54.0660391,5.55821078 C54.0660391,6.16176471 54.2988932,6.45343137 54.7957316,6.45343137 C54.9756643,6.45343137 55.1873498,6.40134804 55.3355297,6.33884804 L55.5465926,7.22365196 C55.2614398,7.31740196 54.9015744,7.41115196 54.4887876,7.41115196 C53.2834253,7.41115196 52.8388857,6.66176471 52.8388857,5.55821078 L52.8388857,3.12132353" id="Fill-8" fill="#FFFFFF"></path>
                        <path d="M60.7746026,2.04963235 C62.0764686,2.04963235 63.2507007,3.02818627 63.2507007,4.73529412 C63.2507007,6.43259804 62.0764686,7.41115196 60.7746026,7.41115196 C59.4845661,7.41115196 58.310334,6.43259804 58.310334,4.73529412 C58.310334,3.02818627 59.4845661,2.04963235 60.7746026,2.04963235 L60.7746026,2.04963235 Z M60.7746026,6.43259804 C61.5372931,6.43259804 62.0023787,5.75551471 62.0023787,4.73529412 C62.0023787,3.70526961 61.5372931,3.02818627 60.7746026,3.02818627 C60.0137799,3.02818627 59.558656,3.70526961 59.558656,4.73529412 C59.558656,5.75551471 60.0137799,6.43259804 60.7746026,6.43259804 L60.7746026,6.43259804 Z" id="Fill-9" fill="#FFFFFF"></path>
                        <path d="M64.4604213,2.17463235 L65.4646823,2.17463235 L65.5499792,2.86151961 L65.5910711,2.86151961 C66.0561566,2.41421569 66.5853704,2.04963235 67.294517,2.04963235 C68.4064886,2.04963235 68.8927427,2.78921569 68.8927427,4.07965686 L68.8927427,7.28615196 L67.6749283,7.28615196 L67.6749283,4.23590686 C67.6749283,3.39276961 67.4327352,3.08026961 66.8605616,3.08026961 C66.4054377,3.08026961 66.1097006,3.29840686 65.6757453,3.71507353 L65.6757453,7.28615196 L64.4604213,7.28615196 L64.4604213,2.17463235" id="Fill-10" fill="#FFFFFF"></path>
                        <path d="M92.6824607,25.2518382 C92.1314557,25.2518382 91.6277687,25.1531863 91.1732674,24.9528186 C90.7175209,24.7536765 90.3346191,24.4454657 90.0270525,24.0300245 L89.9330392,24.0300245 C89.9946771,24.5165441 90.0270525,24.9773284 90.0270525,25.4117647 L90.0270525,28.8400735 L88.7451098,28.8400735 L88.7451098,16.7720588 L89.7879724,16.7720588 L89.9647921,17.9117647 L90.0270525,17.9117647 C90.3564103,17.4558824 90.7393121,17.1280637 91.1782482,16.9234069 C91.614694,16.7230392 92.1171358,16.6207108 92.6824607,16.6207108 C93.8056392,16.6207108 94.6710595,16.9981618 95.2818345,17.7518382 C95.8907417,18.5067402 96.1958179,19.5667892 96.1958179,20.9295343 C96.1958179,22.2965686 95.8851383,23.3590686 95.2675146,24.1176471 C94.6442875,24.8737745 93.7838481,25.2518382 92.6824607,25.2518382 L92.6824607,25.2518382 Z M92.496302,17.6905637 C91.6333721,17.6905637 91.007032,17.9264706 90.6210172,18.3988971 C90.235625,18.8694853 90.0370142,19.6194853 90.0270525,20.6476716 L90.0270525,20.9295343 C90.0270525,22.0992647 90.2244181,22.9356618 90.6210172,23.4411765 C91.0169937,23.9448529 91.6526729,24.1973039 92.5280548,24.1973039 C93.2589925,24.1973039 93.8330338,23.9050245 94.2464432,23.3223039 C94.6617204,22.7414216 94.8684251,21.9375 94.8684251,20.9136029 C94.8684251,19.8756127 94.6617204,19.0790441 94.2464432,18.5238971 C93.8330338,17.9675245 93.2484082,17.6905637 92.496302,17.6905637 L92.496302,17.6905637 Z" id="Fill-11" fill="#FFFFFF"></path>
                        <path d="M97.8812083,13.2769608 L99.163151,13.2769608 L99.163151,25.1004902 L97.8812083,25.1004902 L97.8812083,13.2769608 Z" id="Fill-12" fill="#FFFFFF"></path>
                        <path d="M106.531675,25.1004902 L106.277653,23.9154412 L106.215392,23.9154412 C105.793889,24.4393382 105.371763,24.7910539 104.952128,24.9754902 C104.533737,25.1593137 104.009504,25.2518382 103.381296,25.2518382 C102.543271,25.2518382 101.8858,25.0392157 101.408885,24.6151961 C100.933838,24.1887255 100.694135,23.5845588 100.694135,22.7984069 C100.694135,21.1176471 102.061375,20.2346814 104.795231,20.1544118 L106.232202,20.1084559 L106.232202,19.5906863 C106.232202,18.9381127 106.088381,18.4546569 105.801983,18.1446078 C105.518075,17.8333333 105.058593,17.6764706 104.43163,17.6764706 C103.725597,17.6764706 102.929908,17.8903186 102.039584,18.3155637 L101.644853,17.348652 C102.061375,17.1280637 102.518367,16.9534314 103.014582,16.8247549 C103.511421,16.6979167 104.009504,16.6360294 104.510078,16.6360294 C105.518075,16.6360294 106.265201,16.8566176 106.752077,17.2977941 C107.237709,17.7377451 107.48177,18.4436275 107.48177,19.4172794 L107.48177,25.1004902 L106.531675,25.1004902 L106.531675,25.1004902 Z M103.63781,24.2113971 C104.435366,24.2113971 105.062951,23.9957108 105.518075,23.5661765 C105.971331,23.1348039 106.199827,22.5318627 106.199827,21.7567402 L106.199827,21.0061275 L104.917262,21.057598 C103.898058,21.0943627 103.163385,21.2493873 102.715732,21.5257353 C102.263721,21.8026961 102.039584,22.2328431 102.039584,22.8137255 C102.039584,23.2696078 102.177802,23.6170343 102.459219,23.8541667 C102.740636,24.0931373 103.132255,24.2113971 103.63781,24.2113971 L103.63781,24.2113971 Z" id="Fill-13" fill="#FFFFFF"></path>
                        <path d="M108.225782,16.7720588 L109.599248,16.7720588 L111.453986,21.5226716 C111.858057,22.6060049 112.113325,23.3884804 112.209206,23.8707108 L112.271466,23.8707108 C112.338707,23.6102941 112.478793,23.1697304 112.692969,22.5428922 C112.907145,21.9172794 113.604462,19.9926471 114.788034,16.7720588 L116.162744,16.7720588 L112.527979,26.254902 C112.166246,27.1936275 111.746611,27.8572304 111.264715,28.2506127 C110.782819,28.6446078 110.191967,28.8400735 109.493405,28.8400735 C109.101164,28.8400735 108.714527,28.7947304 108.333493,28.7095588 L108.333493,27.6985294 C108.616778,27.7616422 108.933683,27.7910539 109.282965,27.7910539 C110.16395,27.7910539 110.791535,27.3039216 111.167588,26.3321078 L111.6389,25.1470588 L108.225782,16.7720588" id="Fill-14" fill="#FFFFFF"></path>
                        <path d="M68.9388155,17.5465686 C69.347244,17.8768382 70.1946087,18.5735294 70.1946087,19.8970588 C70.1946087,21.1868873 69.4524642,21.7971814 68.709697,22.3719363 C68.4799559,22.5955882 68.212236,22.8431373 68.212236,23.2267157 C68.212236,23.6090686 68.4799559,23.817402 68.6742085,23.9742647 L69.3123782,24.4613971 C70.0906338,25.1072304 70.7972899,25.6985294 70.7972899,26.9019608 C70.7972899,28.5386029 69.1859894,30.1936275 66.1426986,30.1936275 C63.5757003,30.1936275 62.3379625,28.9914216 62.3379625,27.7028186 C62.3379625,27.0747549 62.6548682,26.1881127 63.7014664,25.5765931 C64.7972503,24.9142157 66.2858977,24.8284314 67.0815862,24.7751225 C66.8325444,24.4613971 66.5505046,24.1311275 66.5505046,23.5931373 C66.5505046,23.2947304 66.6389144,23.120098 66.7267017,22.9105392 C66.5318265,22.9283088 66.3375738,22.9448529 66.159509,22.9448529 C64.2848468,22.9448529 63.2220609,21.5686275 63.2220609,20.2113971 C63.2220609,19.4099265 63.5943784,18.5208333 64.3545785,17.8768382 C65.3638204,17.0588235 66.5666923,16.9185049 67.5236354,16.9185049 L71.1696074,16.9185049 L70.0364672,17.5465686 L68.9388155,17.5465686 L68.9388155,17.5465686 Z M67.6830222,25.28125 C67.541691,25.2628676 67.4526585,25.2628676 67.277084,25.2628676 C67.1176973,25.2628676 66.159509,25.2977941 65.4173644,25.5441176 C65.027614,25.6819853 63.895719,26.1004902 63.895719,27.3363971 C63.895719,28.5710784 65.1166464,29.4620098 67.0106093,29.4620098 C68.709697,29.4620098 69.6118509,28.6605392 69.6118509,27.5802696 C69.6118509,26.6911765 69.0290931,26.221201 67.6830222,25.28125 L67.6830222,25.28125 Z M68.1960483,21.9705882 C68.6032316,21.5686275 68.6380975,21.0140931 68.6380975,20.6997549 C68.6380975,19.4442402 67.8772748,17.4932598 66.4085508,17.4932598 C65.9478234,17.4932598 65.4528529,17.721201 65.1683226,18.0698529 C64.8682272,18.435049 64.78044,18.9044118 64.78044,19.3590686 C64.78044,20.5251225 65.4709084,22.4595588 66.9925538,22.4595588 C67.4358482,22.4595588 67.9127632,22.25 68.1960483,21.9705882 L68.1960483,21.9705882 Z" id="Fill-15" fill="#FFFFFF"></path>
                        <path d="M57.7973079,25.0036765 C54.9868712,25.0036765 53.4857717,22.8449755 53.4857717,20.8970588 C53.4857717,18.6194853 55.3753764,16.6715686 58.0619148,16.6715686 C60.6594208,16.6715686 62.2856638,18.6715686 62.2856638,20.7769608 C62.2856638,22.8278186 60.6780989,25.0036765 57.7973079,25.0036765 L57.7973079,25.0036765 Z M60.0050635,23.59375 C60.4303023,23.0373775 60.5355225,22.3406863 60.5355225,21.6629902 C60.5355225,20.1311275 59.7946231,17.2107843 57.6024327,17.2107843 C57.0190523,17.2107843 56.4362945,17.4375 56.0129234,17.8026961 C55.3237002,18.411152 55.1991793,19.1758578 55.1991793,19.9258578 C55.1991793,21.6458333 56.0658448,24.4797794 58.2038686,24.4797794 C58.8930918,24.4797794 59.6009931,24.1495098 60.0050635,23.59375 L60.0050635,23.59375 Z" id="Fill-16" fill="#FFFFFF"></path>
                        <path d="M48.2191603,25.0036765 C45.4081009,25.0036765 43.9070015,22.8449755 43.9070015,20.8970588 C43.9070015,18.6194853 45.7978514,16.6715686 48.4837672,16.6715686 C51.0812732,16.6715686 52.7068935,18.6715686 52.7068935,20.7769608 C52.7068935,22.8278186 51.0993287,25.0036765 48.2191603,25.0036765 L48.2191603,25.0036765 Z M50.428161,23.59375 C50.8515321,23.0373775 50.9573749,22.3406863 50.9573749,21.6629902 C50.9573749,20.1311275 50.2158529,17.2107843 48.0242851,17.2107843 C47.4409046,17.2107843 46.8575242,17.4375 46.4341532,17.8026961 C45.7436848,18.411152 45.6204091,19.1758578 45.6204091,19.9258578 C45.6204091,21.6458333 46.4864519,24.4797794 48.625721,24.4797794 C49.3143216,24.4797794 50.0203551,24.1495098 50.428161,23.59375 L50.428161,23.59375 Z" id="Fill-17" fill="#FFFFFF"></path>
                        <path d="M42.5559497,24.7303922 L40.016346,25.3069853 C38.9834451,25.4644608 38.0613678,25.6029412 37.085124,25.6029412 C32.1814909,25.6029412 30.3155452,22.0545343 30.3155452,19.2732843 C30.3155452,15.8817402 32.962237,12.7352941 37.4929299,12.7352941 C38.4536087,12.7352941 39.3756859,12.875 40.209976,13.1017157 C41.5442174,13.4693627 42.1661993,13.9240196 42.5559497,14.1856618 L41.0816223,15.5667892 L40.460263,15.7058824 L40.9048026,15.0061275 C40.3002536,14.4307598 39.1982436,13.3639706 37.1025569,13.3639706 C34.2952332,13.3639706 32.1814909,15.4632353 32.1814909,18.5226716 C32.1814909,21.8094363 34.5965738,24.9050245 38.4691738,24.9050245 C39.6079174,24.9050245 40.1931656,24.6758578 40.7261151,24.466299 L40.7261151,21.6531863 L38.0445575,21.7922794 L39.4647184,21.0386029 L43.2314756,21.0386029 L42.7695031,21.4767157 C42.6443596,21.5814951 42.6269266,21.6164216 42.5914382,21.7567402 C42.5733826,21.9136029 42.5559497,22.4221814 42.5559497,22.5949755 L42.5559497,24.7303922" id="Fill-18" fill="#FFFFFF"></path>
                        <path d="M74.5553307,24.2267157 C73.9682146,24.1734069 73.8468067,24.0698529 73.8468067,23.3860294 L73.8468067,13.4901961 C73.8499198,13.4515931 73.8530328,13.4142157 73.8549006,13.3768382 C73.9271227,12.7653186 74.1039424,12.661152 74.6568152,12.3455882 L72.1153436,12.3455882 L70.7817248,12.9754902 L72.1390026,12.9754902 L72.1390026,12.9828431 L72.1390026,12.9767157 L72.1390026,23.7720588 C72.1390026,24.1207108 72.0686483,24.1734069 71.6595971,24.6973039 L74.8037499,24.6973039 L75.463088,24.314951 C75.1605022,24.2775735 74.8572938,24.2610294 74.5553307,24.2267157" id="Fill-19" fill="#FFFFFF"></path>
                        <path d="M81.7856367,24.3860294 C81.5913841,24.4908088 81.3971315,24.6133578 81.2047467,24.6985294 C80.6207437,24.9607843 80.020553,25.0300245 79.4900939,25.0300245 C78.9278821,25.0300245 78.0444063,24.9938725 77.1447428,24.3517157 C75.8908173,23.4840686 75.3441706,21.9908088 75.3441706,20.6875 C75.3441706,17.9957108 77.569359,16.6764706 79.3854964,16.6764706 C80.020553,16.6764706 80.6724199,16.8333333 81.2047467,17.1636029 C82.0844869,17.7352941 82.314228,18.4810049 82.4381262,18.8817402 L78.2922029,20.5318627 L76.931812,20.6366422 C77.3732386,22.8419118 78.8905258,24.1256127 80.5671997,24.1256127 C81.4674858,24.1256127 82.1199753,23.8125 82.7201661,23.5183824 L81.7856367,24.3860294 L81.7856367,24.3860294 Z M80.1257731,19.2101716 C80.4619796,19.0906863 80.637554,18.9859069 80.637554,18.7438725 C80.637554,18.0496324 79.8443559,17.25 78.8905258,17.25 C78.1838697,17.25 76.8614577,17.7886029 76.8614577,19.6642157 C76.8614577,19.9583333 76.8969462,20.2714461 76.9162469,20.5839461 L80.1257731,19.2101716 L80.1257731,19.2101716 Z" id="Fill-20" fill="#FFFFFF"></path>
                        <path d="M83.4878374,16.7953431 L83.4878374,17.9411765 L83.3465062,17.9411765 L83.3465062,16.7953431 L82.961114,16.7953431 L82.961114,16.6764706 L83.8738522,16.6764706 L83.8738522,16.7953431 L83.4878374,16.7953431" id="Fill-21" fill="#FFFFFF"></path>
                        <path d="M85.0748563,17.9411765 L85.0748563,16.7855392 L85.0698755,16.7855392 L84.7100101,17.9411765 L84.5991865,17.9411765 L84.2374533,16.7855392 L84.2337176,16.7855392 L84.2337176,17.9411765 L84.1042159,17.9411765 L84.1042159,16.6764706 L84.3252405,16.6764706 L84.6527305,17.6991422 L84.6564661,17.6991422 L84.9795978,16.6764706 L85.2018676,16.6764706 L85.2018676,17.9411765 L85.0748563,17.9411765" id="Fill-22" fill="#FFFFFF"></path>
                    </g>
                </g>
            </g>
        </g>
    </g>
</svg>